<?xml version="1.0" encoding="UTF-8" standalone="no"?>
<!-- Created with Inkscape (http://www.inkscape.org/) -->

<svg
   xmlns:dc="http://purl.org/dc/elements/1.1/"
   xmlns:cc="http://creativecommons.org/ns#"
   xmlns:rdf="http://www.w3.org/1999/02/22-rdf-syntax-ns#"
   xmlns:svg="http://www.w3.org/2000/svg"
   xmlns="http://www.w3.org/2000/svg"
   xmlns:sodipodi="http://sodipodi.sourceforge.net/DTD/sodipodi-0.dtd"
   xmlns:inkscape="http://www.inkscape.org/namespaces/inkscape"
   version="1.1"
   id="svg3718"
   xml:space="preserve"
   width="122.36"
   height="122.36"
   viewBox="0 0 122.36 122.36"
   sodipodi:docname="todoist-seeklogo.com.svg"
   inkscape:version="0.92.2 5c3e80d, 2017-08-06"><metadata
     id="metadata3724"><rdf:RDF><cc:Work
         rdf:about=""><dc:format>image/svg+xml</dc:format><dc:type
           rdf:resource="http://purl.org/dc/dcmitype/StillImage" /><dc:title></dc:title></cc:Work></rdf:RDF></metadata><defs
     id="defs3722" /><sodipodi:namedview
     pagecolor="#ffffff"
     bordercolor="#666666"
     borderopacity="1"
     objecttolerance="10"
     gridtolerance="10"
     guidetolerance="10"
     inkscape:pageopacity="0"
     inkscape:pageshadow="2"
     inkscape:window-width="1366"
     inkscape:window-height="716"
     id="namedview3720"
     showgrid="false"
     inkscape:zoom="1.7028681"
     inkscape:cx="207.18976"
     inkscape:cy="52.883809"
     inkscape:window-x="0"
     inkscape:window-y="0"
     inkscape:window-maximized="1"
     inkscape:current-layer="g3728" /><g
     id="g3726"
     inkscape:groupmode="layer"
     inkscape:label="ink_ext_XXXXXX"
     transform="matrix(1.3333333,0,0,-1.3333333,0,122.36)"><g
       id="g3728"
       transform="scale(0.1)"><path
         d="M 803,917.715 H 114.715 C 52.1445,917.715 0,865.57 0,803 V 114.715 C 0,52.1445 52.1445,0 114.715,0 H 803 c 62.57,0 114.715,52.1445 114.715,114.715 V 803 c 0,62.57 -50.059,114.715 -114.715,114.715"
         style="fill:#e6322d;fill-opacity:1;fill-rule:nonzero;stroke:none"
         id="path3746"
         inkscape:connector-curvature="0" /><path
         d="m 196.059,488.059 c 16.683,8.339 362.914,208.57 371.254,212.742 8.343,4.172 8.343,18.769 0,22.941 -8.34,4.172 -25.028,14.602 -31.286,18.774 -6.257,4.172 -18.769,6.254 -29.199,0 -4.172,-2.086 -300.344,-173.118 -310.769,-179.371 -12.516,-6.258 -27.118,-6.258 -37.543,0 -8.344,6.253 -156.43006,91.769 -156.43006,91.769 V 577.742 C 39.6289,554.801 135.57,500.57 158.516,488.059 c 12.511,-8.344 25.027,-8.344 37.543,0"
         style="fill:#ffffff;fill-opacity:1;fill-rule:nonzero;stroke:none"
         id="path3748"
         inkscape:connector-curvature="0" /><path
         d="m 196.059,333.715 c 16.683,8.344 362.914,208.57 371.254,212.742 8.343,4.172 8.343,18.77 0,22.941 -8.34,4.172 -25.028,14.602 -31.286,18.774 -6.257,4.172 -18.769,6.258 -29.199,0 -4.172,-2.086 -300.344,-173.113 -310.769,-179.371 -12.516,-6.258 -27.118,-6.258 -37.543,0 C 148.086,415.059 0,500.57 0,500.57 v -77.172 c 37.543,-22.941 133.484,-77.171 156.43,-89.683 14.597,-8.344 27.113,-8.344 39.629,0"
         style="fill:#ffffff;fill-opacity:1;fill-rule:nonzero;stroke:none"
         id="path3750"
         inkscape:connector-curvature="0" /><path
         d="m 196.059,179.371 c 16.683,8.344 362.914,208.57 371.254,212.742 8.343,4.172 8.343,18.774 0,22.946 -8.34,4.168 -25.028,14.597 -31.286,18.769 -6.257,4.172 -18.769,6.258 -29.199,0 -4.172,-2.086 -300.344,-173.113 -310.769,-179.371 -12.516,-6.258 -27.118,-6.258 -37.543,0 -8.344,6.258 -156.43006,91.77 -156.43006,91.77 V 269.059 C 39.6289,246.113 135.57,191.887 158.516,179.371 c 12.511,-8.344 25.027,-8.344 37.543,0"
         style="fill:#ffffff;fill-opacity:1;fill-rule:nonzero;stroke:none"
         id="path3752"
         inkscape:connector-curvature="0" /></g></g></svg>